# xmcd
#
# Track frame offsets:
#	150
#	21700
#	37913
#	59857
#	81142
#	97345
#	114025
#	138864
#	152217
#	232454
#	256065
#	276950
#	295537
#	325625
#
# Disc length: 4524 seconds
#
# Revision: 2
# Processed by: cddbd v1.5.2PL0 Copyright (c) Steve Scherf et al.
# Submitted via: audiograbber 1.83.01
#
DISCID=c911aa0e
DTITLE=Strebersdorfer Buam - 30 Jahre Strebersdorfer Buam CD1
DYEAR=2005
DGENRE=Comedy
TTITLE0=Strada del Gürtel
TTITLE1=Mir mit de grauen Janka
TTITLE2=Das Lied der Schlümpfe
TTITLE3=Waluliso
TTITLE4=Brauner Bär und weisse Taube
TTITLE5=Ein Bett im Kornfeld
TTITLE6=Kufstein
TTITLE7=Hydrant
TTITLE8=Doppelconference
TTITLE9=Hexen
TTITLE10=Das ist Italien
TTITLE11=Ich will lieber Schokolade
TTITLE12=Keine Sterne in Athen
TTITLE13=Bottimchin
EXTD=30 Jahre bestes Heurigenkabarett aus Österreich
EXTT0=
EXTT1=
EXTT2=
EXTT3=
EXTT4=
EXTT5=
EXTT6=
EXTT7=
EXTT8=
EXTT9=
EXTT10=
EXTT11=
EXTT12=
EXTT13=
PLAYORDER=
